#!OML:ASF F:\VICON\USERDATA\INSTALL\rory7\rory7.ASF
:FULLY-SPECIFIED
:DEGREES
842
root -0.176774 34.1396 -3.57786 -178.792 -10.3944 185.777
lowerback 6.87265 -3.49264 -4.32185
upperback -0.358688 -5.01605 0.108722
thorax -3.83964 -2.40722 3.01907
lowerneck -4.51677 0.41064 -40.8454
upperneck 17.8901 1.74184 38.1821
head 5.00606 1.52439 25.4877
rclavicle -1.28216e-014 2.8625e-014
rhumerus -31.6725 7.28295 -77.378
rradius 78.7445
rwrist 6.02503
rhand -37.959 -353.86
rfingers 7.12502
rthumb -10.9997 336.448
lclavicle -1.28216e-014 2.8625e-014
lhumerus -26.7226 -27.5256 91.2631
lradius 72.1487
lwrist 16.6417
lhand -28.6229 19.7895
lfingers 7.12502
lthumb -1.98753 49.76
rfemur -10.0661 28.9356 20.7666
rtibia 32.9559
rfoot -11.7898 9.70428
rtoes 0.518975
lfemur -12.9452 7.68166 -20.6096
ltibia 33.657
lfoot -25.0029 17.8445
ltoes 14.4819
843
root -0.193502 34.1379 -3.56924 -178.733 -10.3041 185.955
lowerback 6.85282 -3.33108 -4.13988
upperback -0.2738 -4.79206 -0.0448912
thorax -3.78592 -2.30506 2.73556
lowerneck -4.37519 0.273621 -39.8572
upperneck 17.6842 1.41312 38.0188
head 5.08431 1.4256 25.0032
rclavicle 4.87022e-015 -1.59028e-015
rhumerus -31.3626 7.01051 -77.646
rradius 77.5375
rwrist 5.25303
rhand -37.4767 -353.253
rfingers 7.12502
rthumb -10.5345 337.031
lclavicle 4.87022e-015 -1.59028e-015
lhumerus -26.511 -28.222 91.1439
lradius 72.1986
lwrist 16.7681
lhand -28.7235 19.8883
lfingers 7.12502
lthumb -2.08463 49.8579
rfemur -10.2319 29.0237 20.8515
rtibia 32.9845
rfoot -11.8085 9.6419
rtoes 0.128913
lfemur -13.0533 7.71586 -20.4993
ltibia 33.6258
lfoot -25.2738 17.7467
ltoes 16.0581
844
root -0.210833 34.1404 -3.55602 -178.716 -10.317 186.123
lowerback 6.976 -3.3943 -4.07998
upperback -0.221512 -4.87082 0.0640093
thorax -3.79009 -2.34474 2.82815
lowerneck -4.66607 0.214565 -39.5128
upperneck 17.7264 1.3735 37.7954
head 5.18009 1.42324 24.717
rclavicle 1.68967e-015 3.18055e-014
rhumerus -30.8733 7.62278 -77.7247
rradius 76.3223
rwrist 4.49487
rhand -37.3426 -352.811
rfingers 7.12502
rthumb -10.4051 337.467
lclavicle 1.68967e-015 3.18055e-014
lhumerus -26.3193 -28.0066 91.1978
lradius 72.2608
lwrist 16.7162
lhand -28.7222 20.1226
lfingers 7.12502
lthumb -2.08338 50.0922
rfemur -10.3291 29.0525 20.9404
rtibia 32.9743
rfoot -11.7961 9.55635
rtoes -0.0169734
lfemur -13.1418 7.73397 -20.3959
ltibia 33.5903
lfoot -25.2568 17.7861
ltoes 16.2888
845
root -0.22869 34.1447 -3.54342 -178.696 -10.3597 186.112
lowerback 7.13212 -3.41399 -4.21238
upperback -0.160386 -4.91555 0.0684287
thorax -3.79947 -2.36571 2.91871
lowerneck -4.84496 0.150162 -38.9708
upperneck 17.7091 1.27736 37.5744
head 5.26104 1.40779 24.3614
rclavicle -2.40529e-014 1.59028e-015
rhumerus -30.446 8.04017 -77.8563
rradius 75.1487
rwrist 4.00826
rhand -36.9933 -352.301
rfingers 7.12502
rthumb -10.0682 337.96
lclavicle -2.40529e-014 1.59028e-015
lhumerus -26.0965 -28.0211 91.2453
lradius 72.2119
lwrist 16.6344
lhand -28.9557 20.2783
lfingers 7.12502
lthumb -2.30889 50.2455
rfemur -10.392 28.8655 20.8133
rtibia 32.9342
rfoot -11.6887 9.67923
rtoes 0.603783
lfemur -13.1921 7.80886 -20.4835
ltibia 33.5616
lfoot -25.203 17.8977
ltoes 16.4953
846
root -0.246157 34.1469 -3.53143 -178.623 -10.4289 186.122
lowerback 7.21565 -3.40878 -4.32567
upperback -0.180486 -4.92315 0.0656123
thorax -3.85763 -2.36536 2.98629
lowerneck -4.70026 0.165569 -38.3961
upperneck 17.6268 1.19893 37.4063
head 5.23862 1.39955 24.0024
rclavicle 2.20651e-014 -1.27222e-014
rhumerus -30.163 8.36475 -77.9549
rradius 73.9653
rwrist 3.7257
rhand -37.0268 -351.016
rfingers 7.12502
rthumb -10.1005 339.246
lclavicle 2.20651e-014 -1.27222e-014
lhumerus -26.0991 -28.1375 91.3922
lradius 72.2401
lwrist 16.5331
lhand -29.1428 20.5484
lfingers 7.12502
lthumb -2.48966 50.5137
rfemur -10.4887 28.7289 20.6898
rtibia 32.8613
rfoot -11.5414 9.76515
rtoes 1.19762
lfemur -13.3074 7.88432 -20.5549
ltibia 33.5544
lfoot -25.2791 17.6583
ltoes 16.977
847
root -0.261888 34.1487 -3.52057 -178.531 -10.4495 186.339
lowerback 7.21033 -3.41611 -4.14945
upperback -0.125213 -4.91572 0.0843339
thorax -3.81047 -2.36725 2.90454
lowerneck -4.85209 0.07187 -37.822
upperneck 17.5757 1.05095 37.1885
head 5.32922 1.35908 23.6537
rclavicle -5.46658e-015 2.70347e-014
rhumerus -29.7444 8.6122 -78.1251
rradius 72.9031
rwrist 3.61712
rhand -36.4026 -349.69
rfingers 7.12502
rthumb -9.49823 340.544
lclavicle -5.46658e-015 2.70347e-014
lhumerus -25.9182 -28.2291 91.3541
lradius 72.3248
lwrist 16.4556
lhand -29.1467 20.686
lfingers 7.12502
lthumb -2.49342 50.6511
rfemur -10.6236 28.8385 20.8011
rtibia 32.7873
rfoot -11.5215 9.57612
rtoes 1.37498
lfemur -13.5066 7.86844 -20.4014
ltibia 33.5742
lfoot -25.3617 17.5018
ltoes 17.2306
848
root -0.276256 34.1501 -3.5083 -178.489 -10.4247 186.682
lowerback 7.3092 -3.40068 -3.8502
upperback -0.133078 -4.87195 0.119162
thorax -3.89881 -2.34797 2.77854
lowerneck -4.90244 0.0177931 -37.2411
upperneck 17.5745 0.93229 37.0009
head 5.39572 1.33605 23.3291
rclavicle -6.43068e-014 -1.43125e-014
rhumerus -29.4916 8.86527 -78.358
rradius 71.896
rwrist 3.43815
rhand -35.0255 -350.086
rfingers 7.12502
rthumb -8.16939 340.092
lclavicle -6.43068e-014 -1.43125e-014
lhumerus -25.8757 -28.379 91.3881
lradius 72.395
lwrist 16.3631
lhand -29.2228 20.9541
lfingers 7.12502
lthumb -2.56686 50.9185
rfemur -10.738 28.9143 21.0606
rtibia 32.705
rfoot -11.5117 9.37708
rtoes 1.21716
lfemur -13.7069 7.92331 -20.1015
ltibia 33.6463
lfoot -25.3446 17.686
ltoes 17.3073
849
root -0.287942 34.1516 -3.49565 -178.42 -10.4088 186.73
lowerback 7.43359 -3.38511 -3.9303
upperback -0.148795 -4.86507 0.105715
thorax -3.98013 -2.34075 2.81823
lowerneck -4.89753 0.000626007 -36.651
upperneck 17.5436 0.851324 36.809
head 5.42054 1.33089 22.9865
rclavicle 5.14852e-014 -1.27222e-014
rhumerus -29.1698 9.1944 -78.5389
rradius 70.8384
rwrist 2.9456
rhand -33.9728 -350.601
rfingers 7.12502
rthumb -7.15331 339.54
lclavicle 5.14852e-014 -1.27222e-014
lhumerus -25.773 -28.51 91.4426
lradius 72.3107
lwrist 16.2341
lhand -29.3843 20.9875
lfingers 7.12502
lthumb -2.72286 50.9499
rfemur -10.8253 28.8744 21.0127
rtibia 32.6138
rfoot -11.5304 9.24531
rtoes 1.34692
lfemur -13.9156 8.04586 -20.1227
ltibia 33.7716
lfoot -25.3475 17.609
ltoes 17.1505
850
root -0.300371 34.1493 -3.48332 -178.365 -10.3717 186.763
lowerback 7.54331 -3.33169 -4.0224
upperback -0.0733065 -4.80505 0.149659
thorax -3.95627 -2.31123 2.91363
lowerneck -4.92105 -0.0516728 -36.1595
upperneck 17.4323 0.612158 36.9666
head 5.43011 1.29796 22.2424
rclavicle 2.05742e-014 3.18055e-015
rhumerus -28.702 9.44783 -78.5872
rradius 69.8068
rwrist 2.48166
rhand -33.8509 -350.174
rfingers 7.12502
rthumb -7.0356 339.963
lclavicle 2.05742e-014 3.18055e-015
lhumerus -25.6159 -28.7353 91.5189
lradius 72.5004
lwrist 16.1461
lhand -29.6434 21.3472
lfingers 7.12502
lthumb -2.97307 51.3062
rfemur -10.8524 28.9132 20.988
rtibia 32.5299
rfoot -11.6455 8.9381
rtoes 1.90354
lfemur -14.0899 8.28629 -20.139
ltibia 33.9236
lfoot -25.4348 17.3095
ltoes 17.1343
851
root -0.310679 34.1464 -3.47216 -178.271 -10.3226 186.939
lowerback 7.60519 -3.28608 -4.012
upperback -0.027946 -4.742 0.232551
thorax -3.94223 -2.28067 2.98999
lowerneck -5.17149 -0.176652 -35.7031
upperneck 17.4072 0.460961 36.7317
head 5.5484 1.2469 21.9826
rclavicle 3.57812e-015 -1.43125e-014
rhumerus -28.3453 9.73097 -78.7146
rradius 68.8688
rwrist 2.03558
rhand -33.6127 -350.051
rfingers 7.12502
rthumb -6.80567 340.079
lclavicle 3.57812e-015 -1.43125e-014
lhumerus -25.506 -28.9007 91.5827
lradius 72.7043
lwrist 16.099
lhand -29.8687 21.5642
lfingers 7.12502
lthumb -3.19067 51.5201
rfemur -10.9424 28.9464 21.104
rtibia 32.5016
rfoot -11.8977 8.54566
rtoes 1.94732
lfemur -14.3245 8.57741 -20.004
ltibia 34.0508
lfoot -25.4216 17.0837
ltoes 17.1185
